<?xml version="1.0" standalone="no"?>
<!DOCTYPE svg PUBLIC "-//W3C//DTD SVG 1.1//EN" "http://www.w3.org/Graphics/SVG/1.1/DTD/svg11.dtd" >
<svg xmlns="http://www.w3.org/2000/svg">
<metadata>Generated by IcoMoon</metadata>
<defs>
<font id="mom-icons-v1-x" horiz-adv-x="1024">
<font-face units-per-em="1024" ascent="960" descent="-64" />
<missing-glyph horiz-adv-x="1024" />
<glyph unicode="&#x20;" horiz-adv-x="512" d="" />
<glyph unicode="&#xe600;" glyph-name="uniE600" d="M781.248 493.312l-466.624 466.688-90.624-90.624 421.312-421.376-421.312-421.376 90.624-90.624 466.624 466.688c12.48 12.416 18.752 28.928 18.752 45.312s-6.272 32.832-18.752 45.312z" />
<glyph unicode="&#xe601;" glyph-name="uniE601" d="M920.96 896l-544.32-726.080-273.6 364.928-103.104-75.456 325.12-433.664c12.16-16.192 31.296-25.728 51.648-25.728 20.288 0 39.424 9.536 51.52 25.664l595.776 794.816-103.040 75.52z" />
<glyph unicode="&#xe602;" glyph-name="uniE602" d="M960 827.072l-68.928 68.928-379.072-372.16-379.072 372.16-68.928-68.928 372.16-379.072-372.16-379.072 68.928-68.928 379.072 372.16 379.072-372.16 68.928 68.928-372.16 379.072z" />
<glyph unicode="&#xe603;" glyph-name="uniE603" d="M506.31 960c-108.088 0-199.11-91.022-199.11-199.11s91.022-204.8 199.11-204.8 199.112 91.022 199.112 199.112c0 113.778-85.332 204.8-199.11 204.8zM500.622 493.512c-324.266 0-358.4-85.334-358.4-551.822h728.178c5.688 477.866-34.134 551.822-369.778 551.822zM597.332-7.11h-170.668l73.956 329.956-73.956 125.156h159.288l-73.956-130.844 85.332-324.266z" />
<glyph unicode="&#xe604;" glyph-name="uniE604" d="M113.778 487.822c11.378 0 17.066 11.378 17.066 17.068v45.512c0 11.378-11.378 22.756-17.068 22.756h-5.688c-5.688 96.712 28.444 136.534 45.51 147.91l170.668-68.266 204.8-73.956 210.49 73.956 284.444 136.534-500.622 170.666-523.378-170.666 113.778-45.51c-22.756-22.756-51.2-73.956-39.822-170.668h-5.69c-11.378 0-17.068-11.378-17.068-22.756v-45.512c0-11.378 5.69-17.068 17.068-17.068h5.688l-45.512-290.132c0 0 17.068 11.378 22.756 11.378s0-17.068 5.69-22.756c11.378-5.688 17.068 17.068 28.444 17.068 5.69 0 17.066-17.068 28.444-17.068 5.688 0 11.378 11.378 11.378 17.068 5.69 5.688 28.444-5.688 28.444-5.688l-39.822 290.132zM529.068 533.334c0 0-5.688 0-5.688 0s-5.688 0-5.688 0l-284.444 113.778-34.134-295.822c0 0 130.844 79.644 164.978 79.644s147.91-96.712 147.91-96.712 119.466 85.332 164.978 85.332c51.2 0 136.534-68.266 136.534-68.266l-11.378 284.444-273.068-102.4z" />
<glyph unicode="&#xe605;" glyph-name="uniE605" d="M496.512 960c-97.344 0-182.976-25.28-254.080-58.944-23.36-11.264-20.416-26.624-13.12-40.704l39.104-81.344c7.296-14.016 20.288-14.016 34.816-7.040 53.76 23.872 117.632 40.704 175.68 40.704 85.696 0 137.984-35.008 137.984-110.784 0-74.304-43.648-108.032-111.872-154.304-81.216-54.72-135.040-108.032-135.040-223.104v-33.6c0-14.016 5.824-22.528 24.704-22.528h113.344c18.944 0 24.704 8.512 24.704 22.528h0.064v33.6c0 56.128 33.344 85.632 94.4 126.336 88.64 60.352 172.864 127.68 172.864 263.744-1.472 164.096-129.408 245.44-303.552 245.44zM531.264 140.8h-158.272c-20.352 0-29.056-8.448-29.056-26.624v-151.552c0.064-18.24 8.704-26.624 29.056-26.624h158.336c21.696 0 30.4 8.384 30.4 26.624v151.552c0 18.176-8.64 26.624-30.464 26.624z" />
<glyph unicode="&#xe606;" glyph-name="uniE606" d="M895.872 896h-767.872c-70.336 0-127.936-59.712-128-132.608v-464c0.064-72.96 57.6-132.544 127.936-132.608h288l0.128-132.544c-0.128-22.272 7.552-34.368 19.136-34.24 7.36 0 16.448 4.8 26.112 14.72l146.624 152h288.064c70.4 0 128 59.712 127.872 132.608l0.128 464.128c-0.128 73.024-57.728 132.544-128.128 132.544z" />
<glyph unicode="&#xe607;" glyph-name="uniE607" d="M728.178-1.422v0c73.956 0 142.222 28.444 170.668 68.268v-34.134c0-51.2-79.644-96.712-170.668-96.712-96.712 0-170.668 45.51-170.668 96.712 0 0 0 5.688 0 5.688v22.756c0 0 0 5.688 0 5.688 22.756-39.822 91.022-68.266 170.668-68.266zM728.178 118.044v0c73.956 0 142.222 28.444 170.668 68.266v-34.134c0-51.2-79.644-96.712-170.668-96.712-96.712 0-170.668 45.51-170.668 96.712 0 0 0 5.688 0 5.688v22.756c0 0 0 5.688 0 5.688 22.756-39.822 91.022-62.578 170.668-68.266zM728.178 243.2v0c73.956 0 142.222 28.444 170.668 68.268v-34.134c0-51.2-79.644-96.712-170.668-96.712-96.712 0-170.668 45.51-170.668 96.712 0 5.688 0 5.688 0 5.688v22.756c0 0 0 5.688 0 5.688 22.756-45.51 91.022-68.266 170.668-68.266zM728.178 362.668v0c73.956 0 142.222 28.444 170.668 68.266v-34.134c0-51.2-79.644-96.712-170.668-96.712-96.712 0-170.668 45.51-170.668 96.712 0 0 0 5.688 0 5.688v22.756c0 0 0 5.688 0 5.688 22.756-45.51 91.022-68.266 170.668-68.266zM728.178 482.132v0c73.956 0 142.222 28.444 170.668 68.266v-34.132c0-51.2-79.644-96.712-170.668-96.712-96.712 0-170.668 45.512-170.668 96.712 0 5.69 0 5.69 0 11.378v17.068c0 0 0 5.69 0 5.69 22.756-39.822 91.022-68.266 170.668-68.266zM728.178 732.444c96.712 0 170.668-45.51 170.668-96.712s-79.644-96.712-170.668-96.712c-96.712 0-170.668 45.512-170.668 96.712-5.688 51.2 73.956 96.712 170.668 96.712zM324.266-1.422v0c73.956 0 142.222 28.444 170.666 68.268v-34.134c0-51.2-79.644-96.712-170.668-96.712-96.712 0-170.668 45.51-170.668 96.712 0 0 0 5.688 0 5.688v22.756c0 0 0 5.688 0 5.688 22.756-39.822 91.022-68.266 170.668-68.266zM324.266 118.044v0c73.956 0 142.222 28.444 170.666 68.266v-34.134c0-51.2-79.644-96.712-170.668-96.712-96.712 0-170.668 45.51-170.668 96.712 0 0 0 5.688 0 5.688v22.756c0 0 0 5.688 0 5.688 22.756-39.822 91.022-62.578 170.668-68.266zM324.266 243.2v0c73.956 0 142.222 28.444 170.666 68.268v-34.134c0-51.2-79.644-96.712-170.668-96.712-96.712 0-170.668 45.51-170.668 96.712 0 0 0 5.688 0 5.688v22.756c0 0 0 5.688 0 5.688 22.756-45.51 91.022-68.266 170.668-68.266zM324.266 300.090c-96.712 0-170.668 45.51-170.668 96.712s79.644 96.712 170.668 96.712c96.712 0 170.666-45.512 170.666-96.712 0-56.89-73.956-96.712-170.668-96.712zM887.466 931.556l-68.266 28.444c-5.688 0-17.068 0-22.756-5.688 0 0 0-5.69-5.688-5.69-5.688-11.378 0-22.756 11.378-22.756l22.756-5.688-688.356-307.2c-5.688 0-5.688-5.69-5.688-5.69-5.688-5.69-5.688-11.378 0-17.068 5.688-11.378 17.068-17.068 28.444-11.378l688.356 301.51-5.688-22.756c-5.688-11.378 0-22.756 11.378-22.756 11.378-5.69 22.756 0 22.756 11.378l28.444 62.578c-5.688 11.378-5.688 22.756-17.068 22.756z" />
<glyph unicode="&#xe608;" glyph-name="uniE608" d="M591.644 288.712c-5.688 5.688-11.378 17.068-17.068 22.756-5.688 0-5.688-5.688-11.378-5.688-62.578-34.134-142.222-51.2-233.244-51.2s-170.668 17.068-233.244 51.2c-45.512 22.756-73.956 51.2-91.022 85.332v-56.89c0-51.2 34.134-91.022 96.71-125.156s142.222-51.2 227.556-51.2 164.978 17.068 227.556 51.2c28.444 17.068 51.2 34.134 68.268 51.2-11.378 11.378-22.756 22.756-34.134 28.444zM472.178 493.512c-22.756 68.266-11.378 119.468 22.756 153.6l34.134 39.822c-56.89 28.444-119.466 39.822-199.11 39.822-170.668 0-307.2-73.956-307.2-164.978s136.532-164.978 307.2-164.978c62.578 0 125.156 11.378 170.668 28.444-11.378 22.756-22.756 45.512-28.444 68.266zM403.912 487.822c-17.068-5.69-34.132-11.378-62.578-11.378-34.132 0-56.89 5.69-73.956 17.068s-28.444 28.444-34.134 45.512h-28.444v22.756h22.756v17.068h-22.756v17.068h28.444c5.688 22.756 17.068 34.134 34.134 45.51s39.822 17.068 68.266 17.068c11.378 0 22.756 0 34.132-5.688 11.378 0 17.068-5.688 28.444-11.378v17.068h39.822v-51.2h-39.822c-5.69 5.688-5.69 5.688-5.69 5.688-5.69 5.69-5.69 5.69-11.378 11.378s-17.068 5.688-34.132 5.688c-11.378 0-22.756-5.688-34.132-11.378 0 0-5.69-11.378-5.69-22.756h68.266v-22.756h-73.956v-11.378h68.266v-22.756h-62.578c0-11.378 5.69-17.068 11.378-22.756s11.378-11.378 28.444-11.378c17.068 0 28.444 0 34.132 5.69s11.378 11.378 17.068 22.756l51.2-5.688c-11.378-22.756-22.756-34.134-45.512-39.822zM847.644 243.2c-68.268 17.068-136.534 62.578-199.11 125.156s-102.4 125.156-125.156 193.422c-11.378 51.2-11.378 91.022 0 125.156l-39.822-39.822c-34.132-34.134-39.822-85.334-22.756-153.6s56.89-130.844 119.466-193.422c62.578-62.578 125.156-102.4 193.422-119.466s119.466-11.378 153.6 22.756l39.822 39.822c-34.134-17.068-73.956-17.068-119.466 0zM893.156 607.288c-119.466 119.466-267.378 164.978-329.956 96.712-62.578-62.578-22.756-210.49 96.712-329.956s267.378-159.288 329.956-96.712c62.578 68.266 22.756 216.178-96.712 329.956zM773.688 385.422c-17.068 5.688-34.134 17.068-51.2 39.822-22.756 22.756-34.134 45.512-39.822 68.266-5.688 17.068 0 34.132 11.378 51.2l-17.068 17.068 17.068 17.068 17.068-17.068 11.378 11.378-17.068 17.068 17.068 17.068 17.068-28.444c17.068 11.378 34.134 11.378 56.89 5.69s39.822-17.068 56.89-34.134c11.378-11.378 17.068-17.068 22.756-22.756s5.688-17.068 11.378-28.444l5.688 5.69 28.444-28.444-39.822-28.444-28.444 28.444c0 5.69 0 11.378 0 11.378 0 5.69 0 5.69 0 11.378 0 11.378-5.688 17.066-17.068 28.444s-17.068 17.068-28.444 17.068c-5.688 0-17.068-5.688-28.444-11.378l45.51-45.51-17.068-17.068-45.51 45.51-5.688-11.378 45.51-45.512-11.378-11.378-45.51 45.512c-5.688-11.378-11.378-17.068-11.378-22.756 0-11.378 5.688-17.068 11.378-28.444 11.378-11.378 22.756-17.068 28.444-17.068s17.068 0 22.756 5.688l34.134-39.822c-17.068-17.068-34.134-17.068-56.89-5.688zM506.31 402.49c-51.2-17.068-108.088-28.444-176.356-28.444-91.022 0-170.668 17.068-233.244 51.2-45.512 22.756-73.956 56.89-91.022 85.332v-56.89c0-51.2 34.134-91.022 96.71-125.156s142.222-51.2 227.556-51.2c91.022 0 164.978 17.068 227.556 51.2-22.756 22.756-39.822 45.51-51.2 73.956z" />
<glyph unicode="&#xe609;" glyph-name="uniE609" d="M864.712 789.332h-705.422c-68.266 0-119.466-56.89-119.466-119.466v-438.044c0-68.266 51.2-125.156 119.466-125.156h705.422c68.268 0 119.466 56.89 119.466 119.466v0 443.734c0 62.578-56.89 119.466-119.466 119.466zM159.288 709.688h705.422c22.756 0 45.51-17.066 45.51-45.51v-73.956h-790.756v79.644c0 22.756 17.068 39.822 39.822 39.822zM864.712 186.312h-705.422c-22.756 0-45.51 22.756-45.51 45.51v216.178h790.756v-221.866c0-22.756-17.068-39.822-39.822-39.822z" />
<glyph unicode="&#xe60a;" glyph-name="uniE60A" d="M671.288 874.668c-159.288 0-329.956-68.268-329.956-68.268v0c-147.912-56.89-256-199.11-256-364.088 0-79.644 22.756-147.91 62.578-210.49 244.622 244.622 398.222 324.266 455.11 347.022 11.378 5.688 17.068 5.688 0 0-91.022-51.2-341.334-312.89-415.288-392.534v0l-170.668-221.866 96.71-28.444c0 56.89 130.844 193.422 130.844 193.422v0c62.578-45.51 147.912-79.644 238.932-79.644 102.4 0 193.422 39.822 261.69 102.4v0 0c34.134 34.134 68.268 73.956 91.022 113.778 164.978 273.068 170.668 694.044 170.668 694.044s-187.732-85.332-335.644-85.332z" />
<glyph unicode="&#xe60b;" glyph-name="uniE60B" d="M512 652.8c73.956 0 130.844 56.89 130.844 130.844-5.688 73.956-62.578 130.844-130.844 130.844-73.956 0-130.844-56.89-130.844-130.844s56.89-130.844 130.844-130.844zM512 374.044h-142.222v102.4l-102.4-108.088c-45.51-45.51-113.778 11.378-62.578 62.578l176.356 176.356c11.378 11.378 22.756 22.756 51.2 22.756h153.6c22.756 0 39.822-11.378 56.89-22.756l176.356-176.356c45.51-45.51-22.756-108.088-62.578-62.578l-108.088 108.088v-102.4h-136.534zM642.844 322.844l-102.4-102.4 73.956-73.956-73.956-85.332c-45.512-45.51 17.068-113.778 62.578-62.578l125.156 130.844c28.444 28.444 34.134 79.644 5.688 108.088 0-5.688-91.022 85.332-91.022 85.332zM369.778 322.844l102.4-102.4-73.956-73.956 79.644-85.332c45.51-45.51-17.068-113.778-62.578-62.578l-125.156 130.844c-28.444 28.444-34.134 79.644-5.69 108.088l85.332 85.332zM392.534 334.222c-11.378 11.378-5.69 17.068 5.69 17.068h216.178c11.378 0 17.068-5.688 5.688-17.068l-91.022-102.4c-11.378-11.378-22.756-11.378-34.132 0l-102.4 102.4z" />
<glyph unicode="&#xe60c;" glyph-name="uniE60C" d="M921.6 638.016l-354.304 303.488c-30.4 24.576-80.512 24.704-110.976 0l-353.792-304.384c-23.424-18.752-38.528-50.432-38.528-80.64v-536.448c0-46.4 37.632-84.032 83.904-84.032h428.096v416c0 17.6 14.528 32 32 32h128c17.6 0 32-14.4 32-32v-416h108.032c46.336 0 83.968 37.632 83.968 83.968v537.536c0 30.016-14.976 61.568-38.4 80.512zM448 224c0-17.6-14.4-32-32-32h-128c-17.6 0-32 14.4-32 32v128c0 17.6 14.4 32 32 32h128c17.6 0 32-14.4 32-32v-128z" />
<glyph unicode="&#xe60d;" glyph-name="uniE60D" d="M512-46.932v0c-45.512 0-85.332 39.822-85.332 85.332v113.778c0 45.51 39.822 85.332 85.332 85.332v0c45.51 0 85.332-39.822 85.332-85.332v-113.778c-5.688-45.51-39.822-85.332-85.332-85.332zM881.778 942.932h-187.732c-22.756 0-45.51-22.756-45.51-45.51v-11.378l-56.89-85.332c0 0-56.89-5.688-73.956-5.688 0 0 0 0 0 0s0 0 0 0 0 0 0 0 0 0 0 0c-17.068 0-79.644 5.688-79.644 5.688l-56.89 85.332v11.378c0 22.756-22.756 45.51-45.512 45.51h-193.422c-28.444 0-45.51-17.068-45.51-45.51v-17.068c0-22.756 22.756-45.51 45.51-45.51h176.356l73.956-108.090v-56.89h-96.712v-142.222c0 0-91.022-96.712-91.022-273.068s170.666-238.932 170.666-238.932-17.068 256 136.534 261.69c147.91-5.688 130.844-261.69 130.844-261.69s164.978 62.578 164.978 238.932-85.332 273.068-85.332 273.068v142.222h-91.022v56.89l68.268 108.090h182.044c22.756 0 45.51 22.756 45.51 45.51v17.068c0 28.444-17.068 45.51-45.51 45.51zM517.688 482.132c-56.89 0-96.712 45.512-96.712 96.712s39.822 96.712 96.712 96.712c56.89 0 96.712-45.512 96.712-96.712s-45.51-96.712-96.712-96.712z" />
<glyph unicode="&#xe60e;" glyph-name="uniE60E" d="M716.8 476.444c119.466 119.468 85.332 216.178 85.332 216.178s125.156 125.156 34.134 216.178-199.11 0-199.11 0c-39.822 39.822-119.466 45.512-125.156 45.512s-85.334-5.688-125.156-39.822c0 0-108.088 91.022-199.11 0s34.134-216.178 34.134-216.178-34.134-102.4 85.332-221.866c0 0-233.244-147.91-136.532-307.2 0 0-34.134-227.556 159.288-227.556 0 0 85.332 0 119.466 45.51h125.156c39.822-45.51 119.466-45.51 119.466-45.51 193.422 0 159.288 227.556 159.288 227.556 91.022 159.288-136.534 307.2-136.534 307.2zM614.4 783.644c17.068 0 28.444-17.068 28.444-39.822s-11.378-39.822-28.444-39.822-28.444 17.068-28.444 39.822c0 22.756 11.378 39.822 28.444 39.822zM642.844 595.912c0-51.2-56.89-91.022-130.844-91.022s-130.844 39.822-130.844 91.022 56.89 91.022 130.844 91.022c73.956 0 130.844-39.822 130.844-91.022zM398.222 783.644c17.068 0 28.444-17.068 28.444-39.822s-11.378-39.822-28.444-39.822c-17.068 0-28.444 17.068-28.444 39.822s11.378 39.822 28.444 39.822zM512 27.022c-102.4 0-182.044 85.332-182.044 193.422s79.644 193.422 182.044 193.422 182.044-85.332 182.044-193.422-79.644-193.422-182.044-193.422zM557.51 618.666c0-12.568-20.376-22.756-45.512-22.756s-45.512 10.188-45.512 22.756c0 12.568 20.376 22.756 45.512 22.756s45.512-10.188 45.512-22.756z" />
<glyph unicode="&#xe60f;" glyph-name="uniE60F" d="M204.8 72.534c0 0 73.956 68.266 164.978 68.266s256-5.688 256-5.688 28.444 0 39.822 0c17.068 5.688 28.444 11.378 34.134 17.068 11.378 5.688 301.512 147.91 301.512 147.91s28.444 17.068 5.688 45.51c-22.756 28.444-62.578 17.068-62.578 17.068l-199.11-56.89-22.756-11.378c0 0-5.688 22.756-45.51 28.444-39.822 17.068-278.756 45.51-278.756 45.51s-39.822 11.378-79.644-22.756c-45.512-28.444-51.2-39.822-108.088-62.578-62.578-28.444-199.11-79.644-199.11-79.644s22.756-56.89 62.578-73.956c34.134-17.068 73.956-39.822 102.4-45.51 22.756-11.378 28.444-11.378 28.444-11.378zM813.51 425.244h-301.512c-11.378 0-17.068 5.688-17.068 17.068v22.756c0 11.378 5.69 17.068 17.068 17.068h301.512c11.378 0 17.068-5.69 17.068-17.068v-22.756c0-11.378-11.378-17.068-17.068-17.068zM813.51 539.022h-301.512c-11.378 0-17.068 5.69-17.068 17.068v22.756c0 11.378 5.69 17.068 17.068 17.068h301.512c11.378 0 17.068-5.69 17.068-17.068v-22.756c0-11.378-11.378-17.068-17.068-17.068zM813.51 652.8h-301.512c-11.378 0-17.068 5.69-17.068 17.068v22.756c0 11.378 5.69 17.068 17.068 17.068h301.512c11.378 0 17.068-5.688 17.068-17.068v-22.756c0-11.378-11.378-17.068-17.068-17.068zM813.51 766.578h-301.512c-11.378 0-17.068 5.69-17.068 17.068v22.756c0 11.378 5.69 17.068 17.068 17.068h301.512c11.378 0 17.068-5.69 17.068-17.068v-22.756c0-11.378-11.378-17.068-17.068-17.068z" />
<glyph unicode="&#xe610;" glyph-name="uniE610" d="M767.36 568.576c0 0-117.568 167.424-226.88 167.424-171.2 0-200.448-12.672-235.904-31.68-51.456-24.576-105.216-60.288-153.216-96.32h-150.464v-32c0-26.752 17.024-48.832 40.448-58.112-25.6-22.784-41.344-37.888-41.344-37.888l0.896-160c0-35.2 28.736-64 63.936-64h35.584c14.272-55.104 63.936-96 123.392-96s109.12 40.896 123.392 96h296.768c14.336-55.104 63.808-96 123.456-96 59.584 0 109.056 40.896 123.392 96h69.312c35.136 0 63.872 28.8 63.872 64v96c0 105.344-256.64 152.576-256.64 152.576zM223.808 224c-35.2 0-63.936 28.672-63.936 64s28.736 64 63.936 64 63.936-28.672 63.936-64-28.736-64-63.936-64zM435.264 512v125.44c25.408 1.536 58.496 2.56 105.152 2.56 33.088 0 107.008-68.096 148.416-126.656l0.96-1.344h-254.528zM767.36 224c-35.328 0-64 28.672-64 64s28.672 64 64 64c35.264 0 63.936-28.672 63.936-64s-28.672-64-63.936-64z" />
<glyph unicode="&#xe611;" glyph-name="uniE611" d="M704 960h-384c-70.4 0-128-57.6-128-128v-768c0-70.4 57.6-128 128-128h384c70.4 0 128 57.6 128 128v768c0 70.4-57.6 128-128 128zM512 32c-35.328 0-64 28.672-64 64s28.672 64 64 64c35.392 0 64-28.672 64-64s-28.608-64-64-64zM736 227.968h-448v576h448v-576z" />
<glyph unicode="&#xe613;" glyph-name="uniE613" d="M435.52 800h152.96c21.76 28.992 59.52 67.84 83.52 96 35.008 41.28-35.392 64-96 64s-64 0-64 0-3.392 0-64 0-131.008-22.72-96-64c23.936-28.16 61.76-67.008 83.52-96zM630.72 704h-237.568c-137.344-106.048-297.152-262.912-297.152-514.688 0-218.752 120-253.312 224-253.312h384c104 0 224 34.56 224 253.312 0 251.776-159.808 408.64-297.28 514.688zM541.248 96c-87.616 0-158.848 71.232-158.848 158.848v26.368h-62.784v77.632h62.656v26.176c0 87.616 71.232 158.976 158.848 158.976 87.36 0 158.72-71.36 158.72-158.976h-77.696c0 44.736-36.224 81.344-81.024 81.344s-81.152-36.48-81.152-81.344v-26.112h96.384v-77.632h-96.32v-26.368c0-44.864 36.352-81.216 81.152-81.216 44.672 0 81.088 36.16 81.088 81.216h77.76c0-87.68-71.36-158.912-158.784-158.912z" />
<glyph unicode="&#xe614;" glyph-name="uniE614" d="M932.978 294.4c-17.068-51.2-51.2-91.022-85.332-125.156l-164.978 176.356h5.688c22.756 5.688 39.822 22.756 34.134 45.51s-22.756 39.822-45.51 34.134l-39.822 79.644 51.2 5.69c22.756 5.69 39.822 22.756 34.134 45.512s-22.756 39.822-45.51 34.134l-381.156-45.512-199.11 392.534c-11.378 17.068-39.822 28.444-56.89 17.068s-28.444-34.134-17.068-56.89l267.378-523.378h-5.69c-22.756-5.688-39.822-22.756-34.134-45.51 0-11.378 5.688-17.068 11.378-22.756l-85.332-210.49c-56.89 45.51-85.332 85.332-85.332 85.332-34.134 39.822-73.956 0-62.578-34.134 79.644-125.156 250.312-187.732 250.312-187.732 273.068-73.956 472.178 51.2 472.178 51.2 164.978 79.644 221.866 170.668 250.312 256 11.378 22.756-28.444 62.578-68.266 28.444zM551.822 499.2l39.822-79.644-221.866-28.444c0 5.688 0 5.688 0 11.378l-34.132 68.266 216.178 28.444zM659.91 49.778c0 0-136.534-56.89-312.89-28.444-39.822 5.688-73.956 17.068-102.4 34.134l102.4 250.312 238.932 34.134c0-5.688 5.688-5.688 5.688-11.378l187.734-204.8c-56.89-51.2-119.466-73.956-119.466-73.956z" />
<glyph unicode="&#xe615;" glyph-name="uniE615" d="M807.822 829.156c-159.288-119.466-136.534-261.688-119.466-329.956-119.466-193.422-347.022-301.512-347.022-301.512 130.844 136.534 85.334 301.512 85.334 301.512-204.8-182.044-159.288-324.266-159.288-324.266-147.912-51.2-238.932 22.756-238.932 22.756l-28.444-51.2c193.422-113.778 375.466 5.688 375.466 5.688 153.6-142.222 295.822-68.268 295.822-68.268-85.332 91.022-221.866 108.088-221.866 108.088 147.912 79.644 256 227.556 284.444 261.69 79.644-5.69 273.068 51.2 290.134 182.044 17.068 142.222-216.178 193.422-216.178 193.422zM967.11 590.222c0 0-187.734 28.444-182.044 182.044h34.134c0 0 0-125.156 153.6-153.6l-5.688-28.444z" />
<glyph unicode="&#xe616;" glyph-name="uniE616" d="M534.756 681.244c85.332 0 108.090 39.822 164.978 39.822 130.844 0 199.11-125.156 199.11-244.622 0-176.356-125.156-426.666-250.312-426.666-34.134 0-62.578 17.068-108.088 45.51 17.068-28.444 22.756-39.822 22.756-45.51 0-17.068-22.756-28.444-45.51-28.444-28.444 0-39.822 5.688-39.822 28.444 0 11.378 0 17.068 17.068 45.51-85.332-51.2-85.332-51.2-102.4-51.2-113.778 0-267.378 250.312-267.378 403.912 0 164.978 102.4 267.378 221.868 267.378 45.512 0 73.956-11.378 125.156-34.132 5.69 56.89 11.378 91.022 39.822 125.156 34.134 39.822 85.332 68.266 113.778 68.266 17.068 0 34.134-17.068 34.134-39.822 0-39.822-108.088 0-125.156-153.6z" />
<glyph unicode="&#xe617;" glyph-name="uniE617" d="M893.156 578.844v335.644h-199.11v-130.844l-182.044 176.356-512-512h91.022v-512h847.644v512h85.332l-130.844 130.844zM614.4 163.556c-62.578-51.2-79.644-62.578-102.4-85.332-22.756 22.756-39.822 34.134-102.4 85.332s-142.222 113.778-142.222 204.8c0 136.534 164.978 204.8 244.622 85.332 79.644 125.156 244.622 51.2 244.622-79.644 0-96.712-79.644-164.978-142.222-210.49z" />
<glyph unicode="&#xe618;" glyph-name="uniE618" d="M1024 715.378l-130.844 108.090-68.268-34.134-5.688-125.156c-51.2 28.444-108.090 45.51-164.978 45.51-62.578 0-119.466-17.066-164.978-45.51-51.2 34.132-108.088 51.2-164.978 51.2-176.356 0-324.266-147.91-324.266-324.266s142.222-324.266 324.266-324.266c62.578 0 119.466 17.068 164.978 45.51 45.512-28.444 102.4-45.51 164.978-45.51 176.356 0 324.268 142.222 324.268 324.268 0 85.332-34.134 164.978-91.022 221.866l113.778 28.444 22.756 73.956zM898.844 391.11c0-136.534-113.778-250.312-250.312-250.312-34.134 0-68.266 5.688-102.4 22.756 56.89 56.89 91.022 136.534 91.022 227.556 0 5.688 0 11.378 0 17.068l-22.756 5.688-45.51-45.51c-5.688-62.578-34.134-125.156-79.644-164.978-22.756 22.756-45.512 45.51-56.89 73.956l-28.444-11.378-56.89 22.756c17.068-51.2 39.822-91.022 79.644-130.844-34.132-5.688-68.266-17.068-102.4-17.068-136.532 0-250.312 113.778-250.312 250.312s113.778 250.312 250.312 250.312c34.132 0 68.266-5.69 102.4-22.756-45.512-45.512-73.956-96.712-85.332-159.288l39.822-34.134 28.444 11.378c11.378 56.89 39.822 102.4 79.644 136.534 17.068-17.068 34.132-34.132 45.512-56.89l39.822 22.756h34.134c-17.068 28.444-34.134 56.89-56.89 79.644 28.444 11.378 62.578 22.756 102.4 22.756 136.534 0 244.622-113.778 244.622-250.312z" />
<glyph unicode="&#xe619;" glyph-name="uniE619" d="M1004.352 524.992c-1.984 1.152-10.624 6.976-19.136 14.016l-244.736 204.16c-3.136 2.688-5.76 4.864-8 6.72v35.264c0 16.064-11.968 32.128-22.912 40.128-7.168 5.184-13.568 6.656-18.624 6.656-3.84 0-6.656-0.768-8.832-1.6-12.032-4.928-26.24-17.152-34.304-26.816l-16.32-20.032c-2.112-2.432-7.744-4.736-11.52-4.736-0.64 0-1.216 0.064-1.536 0.128-3.84 0.832-91.648 20.224-152.192 20.224-257.088 0-466.24-157.504-466.24-351.168 0-78.976 33.728-153.344 97.536-215.36l0.192 0.256 135.936-142.528c0.32-0.256 27.136-26.304 49.408-26.304 3.2 0 6.208 0.576 9.088 1.664 15.168 5.952 26.176 24.96 26.176 45.184v5.056c19.328-4.032 94.336-19.328 147.904-19.328 53.632 0 128.512 15.296 147.904 19.328v-5.056c-0.128-16.192 12.032-32.256 22.848-40.192 6.976-5.184 13.376-6.72 18.368-6.72 3.904 0 6.848 0.96 9.088 1.728 9.664 3.84 24.32 13.568 34.24 22.592l288.064 267.136c2.944 2.752 7.104 5.696 11.392 8.576 10.368 7.552 17.344 12.48 20.608 20.416 3.968 9.856 5.248 28.16 5.248 37.504v50.944c0 7.104-1.024 43.456-19.648 52.16zM607.616 576.192l-31.232 7.232c-66.24 15.232-139.776 16-206.72 2.304l-31.36-6.528-18.304 99.776 31.36 6.4c79.552 16.256 166.72 15.36 245.44-2.752l31.296-7.168-20.48-99.264zM784 464.96c-26.56 0-48 22.72-48 50.752s21.44 50.752 48 50.752 48-22.72 48-50.752-21.44-50.752-48-50.752z" />
<glyph unicode="&#xe61b;" glyph-name="uniE61B" d="M728.178 72.534l51.2 51.2-79.644 403.91 187.734 187.734c0 0 51.2 51.2 0 108.090-51.2 51.2-108.088 0-108.088 0l-182.044-187.734-403.912 85.332-56.89-51.2 324.266-159.288-147.912-153.6-147.912 17.068-51.2-56.89 187.734-79.644 79.644-187.734 51.2 51.2-17.068 142.222 153.6 153.6 159.288-324.266z" />
<glyph unicode="&#xe61c;" glyph-name="uniE61C" d="M768 576h-64c0 58.688 0 157.632 0 192 0 106.048-86.016 192-192 192-106.048 0-192-85.952-192-192 0-34.368 0-133.312 0-192h-64c-70.4 0-128-57.6-128-128v-384c0-70.4 57.6-128 128-128h512c70.4 0 128 57.6 128 128v384c0 70.4-57.6 128-128 128zM608 64h-192l50.944 203.776c-30.208 16.256-50.944 47.616-50.944 84.224 0 52.992 42.944 96 96 96s96-43.008 96-96c0-36.608-20.736-67.968-50.944-84.224l50.944-203.776zM608 576h-192v192c0 52.928 43.072 96 96 96s96-43.072 96-96v-192z" />
<glyph unicode="&#xe61d;" glyph-name="uniE61D" d="M512 891.732c0 0-329.956 17.068-455.11-352.712 0 0 96.712 79.644 204.8 0 0 0 113.778 68.268 221.868 17.068v-403.91c0 0-5.69-85.332-102.4-85.332-96.712-5.688-91.022 85.332-91.022 85.332v73.956h-56.89v-73.956c0 0 0-147.91 147.912-147.91s159.288 147.912 159.288 147.912v398.222c113.778 62.578 227.556-11.378 227.556-11.378 102.4 79.644 199.11 0 199.11 0-125.156 369.778-455.11 352.712-455.11 352.712z" />
</font>
</defs>
</svg>
