<?xml version="1.0" standalone="no"?>
<!DOCTYPE svg PUBLIC "-//W3C//DTD SVG 1.1//EN" "http://www.w3.org/Graphics/SVG/1.1/DTD/svg11.dtd" >
<svg xmlns="http://www.w3.org/2000/svg">
<metadata>Generated by IcoMoon</metadata>
<defs>
<font id="mom-icons-v1-x" horiz-adv-x="1024">
<font-face units-per-em="1024" ascent="960" descent="-64" />
<missing-glyph horiz-adv-x="1024" />
<glyph unicode="&#x20;" horiz-adv-x="512" d="" />
<glyph unicode="&#xe600;" glyph-name="uniE600" horiz-adv-x="544" d="M0-17.841l454.531 465.841-454.531 465.841 45.046 46.159 476.414-488.26c6.134-6.286 9.504-14.808 9.504-23.74 0-8.946-3.376-17.492-9.434-23.668l-476.483-488.332-45.046 46.159z" />
<glyph unicode="&#xe601;" glyph-name="uniE601" d="M62.075 494.225l-62.075-44.409 321.569-428.304c15.337-20.427 46.565-20.488 61.985-0.12l640.446 845.959-61.894 44.649-609.371-804.911-290.66 387.136z" />
<glyph unicode="&#xe602;" glyph-name="uniE602" d="M955.137 929.766l58.368-58.368-440.605-440.605 433.275-433.275-58.367-58.367-433.29 433.261-425.931-425.902-58.368 58.368 425.931 425.902-433.246 433.275 58.367 58.367 433.26-433.26z" />
<glyph unicode="&#xe603;" glyph-name="uniE603" horiz-adv-x="608" d="M297.773 911.238c75.321 0 136.598-61.294 136.598-136.615 0-75.272-61.277-136.517-136.598-136.517-75.256 0-136.468 61.245-136.468 136.517 0 75.321 61.212 136.615 136.468 136.615zM297.773 589.345c102.205 0 185.36 83.123 185.36 185.279 0 102.221-83.155 185.377-185.36 185.377-102.14 0-185.23-83.155-185.23-185.377 0-102.156 83.090-185.279 185.23-185.279zM552.635-2.706h-488.854l0.033 263.168c0 126.765 97.020 231.261 220.664 243.224l-42.472-329.533 66.202-53.362 66.251 53.362-42.488 329.517c123.66-11.979 220.664-116.46 220.664-243.176v-263.201zM308.159 553.651c-161.613 0-293.108-131.527-293.108-293.303l-0.033-311.816h586.378v311.962c0 161.646-131.543 293.157-293.238 293.157v0z" />
<glyph unicode="&#xe604;" glyph-name="uniE604" d="M113.792 487.808c11.392 0 17.056 11.392 17.056 17.056v45.504c0 11.392-11.392 22.752-17.056 22.752h-5.696c-5.696 96.704 28.448 136.544 45.504 147.904l170.656-68.256 204.8-73.952 210.496 73.952 284.448 136.544-500.608 170.656-523.392-170.656 113.792-45.504c-22.752-22.752-51.2-73.952-39.808-170.656h-5.696c-11.392 0-17.056-11.392-17.056-22.752v-45.504c0-11.392 5.696-17.056 17.056-17.056h5.696l-45.504-290.144c0 0 17.056 11.392 22.752 11.392s0-17.056 5.696-22.752c11.392-5.696 17.056 17.056 28.448 17.056 5.696 0 17.056-17.056 28.448-17.056 5.696 0 11.392 11.392 11.392 17.056 5.696 5.696 28.448-5.696 28.448-5.696l-39.808 290.144zM529.056 533.344c0 0-5.696 0-5.696 0s-5.696 0-5.696 0l-284.448 113.792-34.144-295.808c0 0 130.848 79.648 164.992 79.648s147.904-96.704 147.904-96.704 119.456 85.344 164.992 85.344c51.2 0 136.544-68.256 136.544-68.256l-11.392 284.448-273.056-102.4z" />
<glyph unicode="&#xe605;" glyph-name="uniE605" horiz-adv-x="736" d="M153.6 174.4l409.6 0.533 0.067-51.2-409.6-0.533-0.067 51.2zM204.8 38.473l0.121 51.127 307.199-0.729-0.121-51.127-307.199 0.729zM238.933 3.822l238.933 0.444 0.095-51.2-238.933-0.444-0.095 51.2zM583.883 209.067h-450.967v25.402c0 28.577-26.9 92.081-55.382 152.409l-45.888 88.905c0 0-1.582 3.175-7.912 19.051-7.912 19.051-11.076 34.927-11.076 34.927-7.912 28.577-12.659 57.153-12.659 87.318 0 188.924 159.816 342.921 357.609 342.921 199.375 0 359.191-153.997 359.191-342.921 0-28.577-3.165-55.566-11.076-82.555-3.165-9.526-3.165-14.288-7.912-28.577s-12.659-28.577-12.659-28.577c-39.558-69.854-102.852-198.45-102.852-242.902v-25.402h1.582zM180.387 259.87h356.026c15.823 74.617 85.446 204.8 102.852 236.552l1.582 3.175c17.406 38.102 25.317 76.205 25.317 117.482 0 161.935-139.246 293.705-308.556 293.705s-308.556-131.771-308.556-293.705c0-36.515 7.912-73.029 22.153-107.957l3.165-6.35 4.747-7.938c17.406-33.34 85.446-160.347 101.27-234.964v0zM558.566 544.050c-41.141 0-74.37 33.34-74.37 73.029 0 65.091-56.964 117.482-125.005 117.482-41.141 0-74.37 33.34-74.37 73.029s31.647 73.029 72.788 73.029c151.905 0 275.327-119.070 275.327-263.541 1.582-41.278-33.229-73.029-74.37-73.029v0zM357.609 829.817c-14.241 0-25.317-9.526-25.317-22.226s11.076-22.226 25.317-22.226c96.523 0 175.64-76.205 175.64-168.285 0-12.701 11.076-22.226 25.317-22.226s25.317 9.526 25.317 22.226c0 117.482-101.27 212.738-226.275 212.738v0z" />
<glyph unicode="&#xe606;" glyph-name="uniE606" d="M171.12 8.533l263.007 262.297 509.197-0.394c44.388 0 80.677 36.768 80.677 81.68l-0.070 462.204c0 44.912-36.289 81.68-80.677 81.68h-862.575c-44.388 0-80.677-36.768-80.677-81.68l0.070-462.204c0-44.912 36.289-81.68 80.677-81.68l90.372-0.059v-261.844zM222.409 320.171l-141.487 0.573c-16.855 0-31.138 14.462-31.138 31.588l-0.244 461.988c0 17.126 14.283 31.588 31.138 31.588h862.575c16.855 0 31.138-14.462 31.138-31.588l0.244-461.988c0-17.126-14.283-31.588-31.138-31.588h-531.343l-189.744-189.658v189.085z" />
<glyph unicode="&#xe607;" glyph-name="uniE607" d="M144 19.947h128v270.188c0 8.614-7.328 15.893-16 15.893h-96c-8.672 0-16-7.279-16-15.893v-270.188zM448 19.947h128v397.335c0 8.614-7.328 15.893-16 15.893h-96c-8.672 0-16-7.279-16-15.893v-397.335zM752 19.947h128v492.695c0 8.614-7.328 15.893-16 15.893h-96c-8.672 0-16-7.279-16-15.893v-492.695zM1024 19.947v-47.68h-1024v47.68h96v270.188c0 34.965 28.8 63.574 64 63.574h96c35.2 0 64-28.608 64-63.574v-270.188h80v397.335c0 34.965 28.8 63.574 64 63.574h96c35.2 0 64-28.608 64-63.574v-397.335h80v492.695c0 34.965 28.8 63.574 64 63.574h96c35.2 0 64-28.608 64-63.574v-492.695h96zM917.888 815.443l-60.16-128.196-43.52 20.153 42.464 90.402-727.36-262.972-16.416 44.788 727.392 263.004-91.072 42.181 20.288 43.198 129.056-59.759c19.968-9.282 28.64-32.963 19.328-52.798v0z" />
<glyph unicode="&#xe608;" glyph-name="uniE608" d="M239.309 722.091c-136.448 0-239.309 51.149-239.309 118.955s102.861 118.955 239.309 118.955c136.448 0 239.343-51.149 239.343-118.955s-102.895-118.955-239.343-118.955zM239.309 911.548c-116.497 0-190.857-41.762-190.857-70.502 0-28.757 74.342-70.502 190.857-70.502s190.891 41.745 190.891 70.502c0 28.74-74.394 70.502-190.891 70.502zM239.309 564.855c-136.448 0-239.309 51.149-239.309 118.938h48.452c0-28.723 74.342-70.502 190.857-70.502s190.891 41.779 190.891 70.502h48.452c0-67.789-102.895-118.938-239.343-118.938zM239.309 407.62c-136.448 0-239.309 51.166-239.309 118.989h48.452c0-28.774 74.342-70.519 190.857-70.519s190.891 41.745 190.891 70.519h48.452c0-67.823-102.895-118.989-239.343-118.989zM239.309 250.47c-136.448 0-239.309 51.098-239.309 118.955h48.452c0-28.791 74.342-70.519 190.857-70.519s190.891 41.728 190.891 70.519h48.452c0-67.857-102.895-118.955-239.343-118.955zM239.309 93.235c-136.448 0-239.309 51.149-239.309 118.989h48.452c0-28.774 74.342-70.554 190.857-70.554s190.891 41.779 190.891 70.554h48.452c0-67.84-102.895-118.989-239.343-118.989zM239.309-64c-136.448 0-239.309 51.149-239.309 118.972h48.452c0-28.723 74.342-70.485 190.857-70.485s190.891 41.762 190.891 70.485h48.452c0-67.823-102.895-118.972-239.343-118.972zM1016.934 240.367l-265.028 265.267-34.27-34.253 223.113-223.898-396.442-0.034v-48.435l396.442 0.034-218.044-218.163 34.406-34.236 259.755 259.43c4.54 4.574 7.134 10.735 7.134 17.135 0 6.434-2.492 12.612-7.066 17.152z" />
<glyph unicode="&#xe609;" glyph-name="uniE609" d="M176.351 231.679l-58.784 33.952 33.952 58.752 24.832-92.704zM612.256 200.287l12.448-46.4-432.768-115.968-12.416 46.4 432.736 115.968zM653.376 294.111l12.416-46.4-494.529-132.512-12.448 46.4 494.561 132.512zM187.519 301.759c-4.544 17.024 5.6 34.656 22.624 39.2l30.912 8.288c16.992 4.544 34.624-5.6 39.2-22.624l8.288-30.912c4.544-16.992-5.632-34.624-22.624-39.2l-30.944-8.256c-16.992-4.576-34.656 5.6-39.2 22.624l-8.256 30.88zM976 832h-656.001v40c0 22.048 17.952 40 40 40h576.001c22.080 0 40-17.952 40-40v-40zM976 552c0-22.048-17.92-40-40-40h-209.12c-12.544 34.496-45.28 58.176-82.56 58.176-7.648 0-15.264-1.024-22.688-3.008l-205.92-55.168h-55.712c-22.048 0-40 17.952-40 40v153.472h656.001v-153.472zM761.792 153.119c-5.376-9.28-13.952-15.936-24.224-18.656l-556.385-149.088c-20.992-5.696-43.424 7.488-48.992 28.288l-82.816 309.12c-2.72 10.24-1.28 20.992 4.064 30.272 5.376 9.312 13.984 15.968 24.224 18.688l556.385 149.056c3.36 0.896 6.816 1.376 10.272 1.376 18.112 0 34.048-12.192 38.72-29.664l82.816-309.088c2.752-10.24 1.312-21.024-4.064-30.304v0zM936 960h-576.001c-48.512 0-88-39.456-88-88v-320c0-28.256 13.6-53.184 34.4-69.28l-241.152-64.608c-22.624-6.048-41.568-20.64-53.376-41.024-11.776-20.416-14.912-44.096-8.864-66.752l82.848-309.12c10.272-38.4 45.28-65.216 85.088-65.216 7.616 0 15.264 1.024 22.688 3.008l556.385 149.088c22.624 6.048 41.568 20.64 53.344 41.024 11.776 20.416 14.944 44.096 8.864 66.752l-71.84 268.128h195.616c48.512 0 88 39.488 88 88v320c0 48.544-39.488 88-88 88v0z" />
<glyph unicode="&#xe60a;" glyph-name="uniE60A" horiz-adv-x="992" d="M929.801 175.735v30.231c0 12.216-2.463 24.074-7.152 34.999 38.83 9.43 67.217 44.733 67.217 86.026v30.265c0 22.824-8.662 44.272-23.798 60.481 15.134 16.223 23.798 37.685 23.798 60.51v30.265c0 48.786-39.384 88.496-87.825 88.496h-312.127l28.392 106.989c7.407 27.516 11.168 56.213 11.168 85.254l0.101 82.277c0 48.777-39.367 88.47-87.792 88.47h-60.082c-47.969 0-87.132-38.942-87.825-87.176-6.808-64.331-21.302-140.325-36.545-166.865l-118.368-206.715c-8.793-15.356-11.699-31.178-11.699-51.243v-449.998c0-34.18 27.583-62.002 61.53-62.002h493.149c48.45 0 87.827 39.703 87.809 88.499v30.211c0 12.21-2.47 24.078-7.166 35.013 38.834 9.414 67.215 44.712 67.215 86.013zM541.784 904.033c17.747 0 32.238-14.598 32.238-32.512l-0.101-82.277c0-24.16-3.108-47.943-9.246-70.761l-47.117-177.458h384.451c17.772 0 32.272-14.606 32.272-32.563v-30.265c0-17.942-14.502-32.546-32.272-32.546h-6.734v-55.933h6.734c17.772 0 32.272-14.589 32.272-32.512v-30.265c0-17.942-14.502-32.546-32.272-32.546h-66.765v-55.933h6.734c17.77 0 32.255-14.587 32.255-32.529v-30.231c0-17.942-14.485-32.529-32.255-32.529h-66.782v-55.933h6.734c17.772 0 32.272-14.606 32.272-32.563v-30.214c0-17.938-14.498-32.529-32.272-32.529h-493.132c-3.277 0-5.976 2.718-5.976 6.069v449.998c0 11.461 1.286 18.094 4.272 23.289l118.368 206.7c12.787 22.269 23.378 60.41 32.163 109.044 3.163 17.511 5.899 35.387 8.218 52.901 1.542 11.643 2.683 21.445 3.435 28.702 0.153 20.335 13.842 34.614 30.942 35.398h61.566zM145.652-64c33.879 0 61.41 27.77 61.429 61.896v458.63c0 34.126-27.53 61.9-61.412 61.9h-84.257c-33.882 0-61.412-27.774-61.412-61.9v-458.626c0-34.126 27.53-61.9 61.412-61.9h84.24zM61.412 462.493h84.257c3.221 0 5.858-2.661 5.858-5.967v-458.626c0-3.289-2.654-5.967-5.858-5.967h-84.257c-3.214 0-5.858 2.671-5.858 5.967v458.626c0 3.299 2.647 5.967 5.858 5.967z" />
<glyph unicode="&#xe60b;" glyph-name="uniE60B" horiz-adv-x="960" d="M907.839 7.573c0-9.91-8.121-17.943-17.954-17.943h-336.343c-9.916 0-17.954 8.177-17.954 17.943v184.248c0 40.034 12.388 78.222 35.868 110.507 35.062 48.213 91.187 76.949 150.203 76.949 102.674 0 186.181-84.094 186.181-187.457v-184.248zM67.136-10.37c-10.112 0-18.347 8.103-18.392 17.952l-1.118 243.224c0 133.786 108.062 242.623 240.868 242.623 110.875 0 205.379-74.579 232.936-180.471-21.916-36.518-33.482-77.968-33.482-121.136v-202.191h-420.812zM556.823 358.019c-42.615 109.123-147.327 183.399-268.33 183.399-159.067 0-288.492-130.381-288.492-290.708l1.337-290.662c0.047-10.167 8.123-18.408 17.977-18.408h918.201c9.911 0 17.945 8.324 17.945 17.992v232.189c0 129.808-104.87 235.415-233.805 235.415-62.034 0-121.287-25.522-164.834-69.216zM288.489 908.877c74.311 0 134.734-60.878 134.734-135.68 0-74.785-60.422-135.6-134.734-135.6-74.217 0-134.592 60.815-134.592 135.6 0 74.801 60.375 135.68 134.592 135.68zM288.489 589.655c100.572 0 182.358 82.312 182.358 183.542 0 101.247-81.785 183.638-182.358 183.638-100.478 0-182.231-82.391-182.231-183.638 0-101.231 81.754-183.542 182.231-183.542zM732.559 471.483c80.801 0 146.298 64.84 146.298 144.791 0 80.003-65.485 144.855-146.298 144.855s-146.298-64.852-146.298-144.855c0-79.951 65.497-144.791 146.298-144.791zM732.559 519.269c-54.076 0-97.942 43.426-97.942 97.004 0 53.634 43.858 97.068 97.942 97.068s97.942-43.434 97.942-97.068c0-53.578-43.866-97.004-97.942-97.004z" />
<glyph unicode="&#xe60c;" glyph-name="uniE60C" d="M311.232 736.763l-103.232-104.438v215.675h-48v-215.286l-102.848 104.050-33.92-34.349 132.672-134.222c7.808-7.899 18.048-11.849 28.288-11.849 10.272 0 20.48 3.95 28.288 11.849l132.704 134.222-33.952 34.349zM368 281.457h-48c0-23.115-52.96-56.654-136-56.654-83.008 0-136 33.539-136 56.654h-48c0-59.989 79.104-105.215 184-105.215s184 45.226 184 105.215v0zM368 168.148h-48c0-23.115-52.96-56.654-136-56.654-83.008 0-136 33.539-136 56.654h-48c0-59.989 79.104-105.215 184-105.215s184 45.226 184 105.215v0zM184 451.42c-83.008 0-136-33.572-136-56.654 0-23.115 52.992-56.654 136-56.654 83.040 0 136 33.539 136 56.654 0 23.083-52.96 56.654-136 56.654v0zM184 289.551c-104.896 0-184 45.226-184 105.215s79.104 105.215 184 105.215c104.896 0 184-45.226 184-105.215s-79.104-105.215-184-105.215v0zM976 121.239c0-5.374-4.32-9.745-9.632-9.745h-54.976v262.39c0 13.403-10.752 24.28-24 24.28h-126.656c-13.248 0-24-10.878-24-24.28v-262.39h-263.072c-5.312 0-9.664 4.37-9.664 9.745v362.005c0.032 0.129 0.704 3.529 9.696 12.399 12.864 11.298 181.088 157.887 246.304 214.736 65.216-56.784 233.216-203.178 246.304-214.704 8.992-8.935 9.664-12.302 9.696-12.464v-361.972zM863.392 111.494h-78.624v238.11h78.624v-238.11zM998.848 531.351c-1.92 1.878-247.616 215.901-247.616 215.901-8.608 7.77-19.904 11.719-31.232 11.719-11.296 0-22.624-3.95-31.2-11.719 0 0-245.696-214.024-247.616-215.901-13.28-12.885-25.184-28.165-25.184-48.14v-361.972c0-32.147 25.888-58.305 57.664-58.305h492.704c31.776 0 57.632 26.158 57.632 58.305v361.972c0 19.975-11.904 35.255-25.152 48.14v0zM577.088 268.669h75.936v80.935h-75.936v-80.935zM677.024 220.109h-123.936c-13.248 0-24 10.878-24 24.28v129.496c0 13.403 10.752 24.28 24 24.28h123.936c13.248 0 24-10.878 24-24.28v-129.496c0-13.403-10.752-24.28-24-24.28v0z" />
<glyph unicode="&#xe60d;" glyph-name="uniE60D" d="M512 752.828c0-7.359 6.174-13.326 13.698-13.326h100.604c7.565 0 13.698 5.98 13.698 13.326v22.115c0 7.359-6.174 13.326-13.698 13.326h-100.604c-7.565 0-13.698-5.98-13.698-13.326v-22.115zM474.944 311.728c9.984-2.503 18.944-3.934 32.416-3.934 7.296 0 14.496 0.39 21.568 1.235 12.416 158.847 143.584 284.24 303.072 284.24 23.744 0 47.264-2.958 70.4-8.843-17.824 90.152-104.704 174.159-194.592 182.254l0.064-89.632 0.032-68.272-63.584 22.107c-13.632 4.747-29.568 6.762-53.216 6.762-56.256 0-98.977-27.634-128.385-86.348-8.224-16.353-14.751-55.983-4.415-147.533 3.648-32.251 9.216-63.136 16.64-92.038zM328 647.888l-152.832 56.536-16.416-45.807 169.248-62.583v51.854zM328 497.331v46.815l-208.224 76.985c-12.448 4.584-18.88 18.564-14.336 31.243l32.832 91.615c2.176 6.112 6.624 11.054 12.416 13.784 5.76 2.731 12.352 3.023 18.336 0.813l191.168-70.711c9.472-3.479 15.808-12.647 15.808-22.887v-86.738c0 0 0-60.856 0-71.1s33.319-49.682 33.319-49.682c2.205-2.663 3.797-1.951 3.565 2.021 0 0-6.167 78.026 11.462 114.238 35.896 73.737 90.758 112.686 166.758 112.686 25.248 0 47.584-2.016 68.768-9.396l-0.064 106.667c0 8.648 3.36 16.906 9.376 22.985 7.424 7.542 18.144 9.331 28.704 9.331 2.048 0 4.096-0.065 6.112-0.195 128.416-6.47 249.728-134.984 249.728-264.506 0-13.329-7.872-24.643-19.040-29.715-31.456 14.402-65.952 22.92-102.688 22.92-141.152 0-256-116.713-256-260.15 0-2.341 0.608-4.519 0.672-6.86-4.448-6.047-10.176-10.989-17.696-12.712-16.48-3.804-33.856-5.754-51.616-5.754-23.2 0-37.568 3.479-53.984 8.063-10.816 3.023-19.328 11.671-22.336 22.66-7.552 27.667-13.44 57.154-17.728 87.811-16.032 39.305-41.888 73.994-75.904 100.393-5.92 4.617-9.408 11.769-9.408 19.376zM336 284.354c0 31.535-9.984 60.73-26.752 84.625l-105.038-106.714c-5.17-5.253-13.525-5.282-19 0.281l-14.675 14.909c-5.323 5.408-5.294 14.207-0.277 19.303l105.038 106.714c-23.552 17.036-52.256 27.179-83.296 27.179-79.424 0-144-65.639-144-146.298 0-80.691 64.576-146.298 144-146.298 79.392 0 144 65.606 144 146.298zM384 284.354c0-107.74-85.984-195.064-192-195.064-106.048 0-192 87.324-192 195.064 0 107.708 85.952 195.064 192 195.064 106.016 0 192-87.356 192-195.064zM976 284.354c0 80.659-64.608 146.298-144 146.298-31.072 0-59.776-10.143-83.328-27.179l105.038-106.714c5.17-5.253 5.203-13.741-0.268-19.303l-14.661-14.909c-5.318-5.408-13.974-5.378-18.991-0.281l-105.038 106.714c-16.768-23.895-26.752-53.090-26.752-84.625 0-80.691 64.576-146.298 144-146.298 79.392 0 144 65.606 144 146.298zM1024 284.354c0-107.74-85.984-195.064-192-195.064-106.048 0-192 87.324-192 195.064 0 107.708 85.952 195.064 192 195.064 106.016 0 192-87.356 192-195.064z" />
<glyph unicode="&#xe60e;" glyph-name="uniE60E" d="M742.322 515.473v-218.834c0-28.132-17.195-50.803-44.362-50.803l-25.76-0.254h-342.301c-27.231 0-49.475 22.925-49.475 51.057v187.082h0.192v123.515c2.173 25.973 23.523 46.612 49.284 46.612h16.492v62.107c-36.435 0-65.967 30.482-65.967 68.076v149.996c0 14.352 11.506 25.973 25.888 25.973h-2.301c14.318 0 25.888-11.431 25.888-25.656v-148.218c0.511-10.288 16.492-10.288 16.492-10.288v82.111c0 28.069 22.245 50.994 49.475 50.994h230.949c27.231 0 49.539-22.925 49.539-50.994v-82.111c0 0 16.492 0 16.492 10.288v148.218c0 14.161 11.442 25.656 25.888 25.656h-2.301c14.255 0 25.888-11.558 25.888-25.973v-149.996c0-37.594-29.532-68.076-65.967-68.076v-62.107h16.492c25.76 0 47.11-20.639 49.284-46.612v-91.763h0.192zM774.091 547.987c62.068-14.923 108.411-72.775 108.411-143.582-51.84-11.748-90.769-59.313-90.769-116.276 0-18.797 4.411-36.451 11.889-52.2l44.362 22.798c-4.155 9.018-6.712 18.861-6.712 29.402 0 37.531 29.596 68.013 65.967 68.013s65.967-30.482 65.967-68.013c0-10.542-2.493-20.385-6.712-29.402l52.991 3.62c0 0 3.26 6.985 3.26 25.783 0 56.963-38.928 104.527-90.705 119.070 0 96.653-68.46 177.176-157.95 192.861v-52.073zM248.655 547.987c-62.068-14.86-108.475-72.331-108.475-140.788 51.904-14.542 90.769-62.107 90.769-119.070 0-18.797-4.347-36.451-11.826-52.2l-44.426 22.798c4.219 9.018 6.776 18.861 6.776 29.402 0 37.531-29.596 68.013-66.031 68.013-36.371 0-65.967-30.482-65.967-68.013 0-10.542 2.557-20.385 6.712-29.402l-44.426-22.798c-7.479 15.749-11.762 33.403-11.762 52.2 0 56.963 38.864 104.527 90.705 116.276 0 99.193 68.396 179.97 157.95 195.655v-52.073zM692.847 245.581v0zM676.355 245.581v0zM659.799 213.829v-226.772h33.048c27.167 0 49.475-22.988 49.475-51.057h-214.457c0 28.069 22.245 51.057 49.475 51.057h33.048v226.772h49.411zM412.359 213.829v-226.772h32.984c27.231 0 49.475-22.988 49.475-51.057h-214.393c0 28.069 22.245 51.057 49.475 51.057h32.984v226.772h49.475zM395.867 653.848h230.949v204.101h-230.949v-204.101zM329.9 296.639h362.947v306.152h-362.947v-306.152zM532.467 788.54c0 17.527 14.255 31.752 31.961 31.752 17.642 0 31.961-14.225 31.961-31.752s-14.318-31.752-31.961-31.752c-17.706 0-31.961 14.225-31.961 31.752v0zM461.514 756.788c-17.642 0-31.961 14.225-31.961 31.752s14.318 31.752 31.961 31.752c17.642 0 31.961-14.225 31.961-31.752s-14.318-31.752-31.961-31.752v0z" />
<glyph unicode="&#xe60f;" glyph-name="uniE60F" horiz-adv-x="832" d="M546.667 960c9.517 0 18.186-5.568 22.3-14.336 4.083-8.736 2.89-19.104-3.109-26.656l-124.504-156.768 314.683-396.128c0.408-0.384 0.754-0.8 1.099-1.216 40.015-47.008 62.063-107.296 62.063-169.696 0-142.912-114.139-259.2-254.379-259.2h-310.506c-140.208 0-254.316 116.288-254.316 259.2 0 62.4 22.017 122.688 62.032 169.696 0.408 0.416 0.754 0.832 1.099 1.216l314.683 396.128-124.535 156.768c-5.968 7.552-7.161 17.92-3.047 26.656 4.052 8.768 12.752 14.336 22.269 14.336h274.166zM409.6 725.952l-311.165-391.616c-0.44-0.544-0.911-1.056-1.382-1.6-32.225-38.176-49.94-87.008-49.94-137.536 0-116.48 92.938-211.2 207.203-211.2h310.506c114.265 0 207.266 94.72 207.266 211.2 0 50.592-17.777 99.456-50.065 137.696l-1.068 1.088-1.539 1.952-309.815 390.016zM499.68 912h-180.223l90.143-113.44 90.080 113.44zM430.083 122.022c47.706 0 86.529 41.24 86.529 91.983h46.588c0-78.027-59.726-141.471-133.117-141.471-72.149 0-130.943 61.234-133.055 137.347h-41.028v49.489h40.842v35.929h-40.842v49.489h41.028c2.081 76.113 60.875 137.347 133.055 137.347 73.391 0 133.117-63.444 133.117-141.471h-46.588c0 50.742-38.823 91.983-86.529 91.983-46.464 0-84.417-39.063-86.467-87.859h100.319v-49.489h-100.505v-35.929h100.505v-49.489h-100.319c2.081-48.796 40.003-87.859 86.467-87.859v0z" />
<glyph unicode="&#xe610;" glyph-name="uniE610" d="M656 515.2h-48c0 38.4-62.4 67.2-89.6 76.8h-60.8v44.8h64c3.2 0 4.8 0 8-1.6 6.4 0 126.4-36.8 126.4-120zM1019.2 438.4v-118.4c0-11.2-8-20.8-20.8-22.4l-91.2-12.8c-9.6-52.8-57.6-92.8-116.8-92.8-65.6 0-118.4 51.2-118.4 113.6s52.8 113.6 118.4 113.6c56 0 102.4-36.8 115.2-86.4l65.6 9.6v88c-22.4 19.2-107.2 81.6-243.2 81.6-9.6 0-17.6 4.8-20.8 12.8-35.2 70.4-81.6 134.4-184 134.4h-201.6c-54.4 0-108.8-105.6-124.8-142.4-3.2-8-12.8-14.4-22.4-14.4-96 0-121.6-32-126.4-41.6v-121.6l48-8c12.8 49.6 59.2 86.4 115.2 86.4 65.6 0 118.4-51.2 118.4-113.6s-52.8-113.6-118.4-113.6c-57.6 0-107.2 40-116.8 92.8l-75.2 12.8c-11.2 3.2-19.2 12.8-19.2 24v145.6c0 1.6 0 4.8 1.6 6.4 1.6 4.8 12.8 40 68.8 59.2l-59.2 36.8c-9.6 4.8-12.8 16-9.6 25.6s12.8 16 22.4 16h169.6c30.4 46.4 73.6 94.4 128 94.4h201.6c136 0 192-92.8 220.8-147.2 172.8-4.8 265.6-97.6 270.4-102.4 3.2-4.8 4.8-9.6 4.8-16zM140.8 305.6c0-36.8 32-67.2 70.4-67.2s70.4 30.4 70.4 67.2c0 36.8-32 67.2-70.4 67.2s-70.4-30.4-70.4-67.2zM860.8 305.6c0 36.8-32 67.2-70.4 67.2s-70.4-30.4-70.4-67.2c0-36.8 32-67.2 70.4-67.2s70.4 28.8 70.4 67.2zM369.6 281.6h264v44.8h-264v-44.8z" />
<glyph unicode="&#xe611;" glyph-name="uniE611" horiz-adv-x="640" d="M501.935 960h-372.403c-71.242 0-129.532-59.458-129.532-132.129v-759.742c0-72.671 58.289-132.129 129.532-132.129h372.403c71.242 0 129.532 59.458 129.532 132.129v759.742c0 72.671-58.289 132.129-129.532 132.129zM501.935 910.452c44.64 0 80.957-37.046 80.957-82.581v-759.742c0-45.535-36.317-82.581-80.957-82.581h-372.403c-44.64 0-80.957 37.046-80.957 82.581v759.742c0 45.535 36.317 82.581 80.957 82.581h372.403zM529.038 823.467h-426.667v-614.4h426.667v614.4zM481.63 261.73h-331.852v509.074h331.852v-509.074zM321.254 28.158c40.574 0 73.463 32.971 73.463 73.647s-32.889 73.647-73.463 73.647c-40.574 0-73.463-32.971-73.463-73.647s32.889-73.647 73.463-73.647zM321.254 63.917c-20.874 0-37.793 16.961-37.793 37.888s16.919 37.888 37.793 37.888c20.874 0 37.793-16.961 37.793-37.888s-16.919-37.888-37.793-37.888zM393.845 615.991c-11.194 23.294-34.903 38.813-61.494 38.813-37.914 0-68.198-30.343-68.198-68.234v-38.554h59.665v-42.748h-59.665v-38.554c0-37.566 30.626-68.234 68.198-68.234 26.872 0 50.519 15.396 61.603 38.756l40.616-13.561c-16.984-40.677-56.792-67.943-102.219-67.943-61.136 0-110.797 49.808-110.797 110.982v38.554h-29.833v42.748h29.833v38.554c0 61.476 49.313 110.982 110.797 110.982 45.062 0 85.036-27.392 102.131-67.958l-40.637-13.603z" />
<glyph unicode="&#xe613;" glyph-name="uniE613" horiz-adv-x="832" d="M546.667 960c9.517 0 18.186-5.568 22.3-14.336 4.083-8.736 2.89-19.104-3.109-26.656l-124.504-156.768 314.683-396.128c0.408-0.384 0.754-0.8 1.099-1.216 40.015-47.008 62.063-107.296 62.063-169.696 0-142.912-114.139-259.2-254.379-259.2h-310.506c-140.208 0-254.316 116.288-254.316 259.2 0 62.4 22.017 122.688 62.032 169.696 0.408 0.416 0.754 0.832 1.099 1.216l314.683 396.128-124.535 156.768c-5.968 7.552-7.161 17.92-3.047 26.656 4.052 8.768 12.752 14.336 22.269 14.336h274.166zM409.6 725.952l-311.165-391.616c-0.44-0.544-0.911-1.056-1.382-1.6-32.225-38.176-49.94-87.008-49.94-137.536 0-116.48 92.938-211.2 207.203-211.2h310.506c114.265 0 207.266 94.72 207.266 211.2 0 50.592-17.777 99.456-50.065 137.696l-1.068 1.088-1.539 1.952-309.815 390.016zM499.68 912h-180.223l90.143-113.44 90.080 113.44zM430.083 122.022c47.706 0 86.529 41.24 86.529 91.983h46.588c0-78.027-59.726-141.471-133.117-141.471-72.149 0-130.943 61.234-133.055 137.347h-41.028v49.489h40.842v35.929h-40.842v49.489h41.028c2.081 76.113 60.875 137.347 133.055 137.347 73.391 0 133.117-63.444 133.117-141.471h-46.588c0 50.742-38.823 91.983-86.529 91.983-46.464 0-84.417-39.063-86.467-87.859h100.319v-49.489h-100.505v-35.929h100.505v-49.489h-100.319c2.081-48.796 40.003-87.859 86.467-87.859v0z" />
<glyph unicode="&#xe614;" glyph-name="uniE614" horiz-adv-x="992" d="M904.72 314.57c-16.539-49.648-49.648-88.25-82.758-121.36l-159.992 171.008h5.523c22.063 5.523 38.602 22.063 33.109 44.125s-22.063 38.602-44.125 33.109l-38.602 77.234 49.648 5.523c22.063 5.523 38.602 22.063 33.109 44.125s-22.063 38.602-44.125 33.109l-369.602-44.125-193.071 380.649c-11.047 16.539-38.602 27.586-55.172 16.539s-27.586-33.109-16.539-55.172l259.289-507.532h-5.523c-22.063-5.523-38.602-22.063-33.109-44.125 0-11.047 5.523-16.539 11.047-22.063l-82.758-204.117c-55.172 44.125-82.758 82.758-82.758 82.758-33.109 38.602-71.711 0-60.695-33.109 77.234-121.36 242.719-182.055 242.719-182.055 264.782-71.711 457.883 49.648 457.883 49.648 159.992 77.234 215.133 165.485 242.719 248.242 11.047 22.063-27.586 60.695-66.188 27.586h-0.031zM535.087 513.164l38.602-77.234-215.133-27.586c0 5.523 0 5.523 0 11.047l-33.109 66.188 209.641 27.586zM639.907 77.374c0 0-132.406-55.172-303.414-27.586-38.602 5.523-71.711 16.539-99.297 33.109l99.297 242.719 231.703 33.109c0-5.523 5.523-5.523 5.523-11.047l182.055-198.594c-55.172-49.648-115.836-71.711-115.836-71.711h-0.031z" />
<glyph unicode="&#xe615;" glyph-name="uniE615" d="M783.329 807.842c-154.469-115.836-132.406-253.766-115.836-319.953-115.836-187.547-336.493-292.368-336.493-292.368 126.883 132.406 82.758 292.368 82.758 292.368-198.594-176.531-154.469-314.43-154.469-314.43-143.422-49.648-231.703 22.063-231.703 22.063l-27.586-49.648c187.547-110.344 364.079 5.523 364.079 5.523 148.945-137.899 286.844-66.188 286.844-66.188-82.758 88.25-215.133 104.82-215.133 104.82 143.422 77.234 248.242 220.656 275.828 253.766 77.234-5.523 264.782 49.648 281.352 176.531 16.539 137.899-209.641 187.547-209.641 187.547v-0.031zM937.798 576.139c0 0-182.055 27.586-176.531 176.531h33.109c0 0 0-121.36 148.945-148.945l-5.523-27.586z" />
<glyph unicode="&#xe616;" glyph-name="uniE616" horiz-adv-x="992" d="M669.935 113.882c0-16.625 13.612-30.118 30.452-30.118s30.452 13.493 30.452 30.118c0 16.625-13.612 30.118-30.452 30.118s-30.452-13.493-30.452-30.118v0zM426.323 113.882c0-16.625 13.612-30.118 30.452-30.118s30.452 13.493 30.452 30.118c0 16.625-13.612 30.118-30.452 30.118s-30.452-13.493-30.452-30.118v0zM47.147 24c0-18.464 8.235-40 31.431-40h668.1c26.088 0 60.128 20.384 72.794 43.584l103.754 190.016c4.4 8.064 4.212 12.576 4.055 13.12-0.503 0.544-3.395 2.016-9.681 2.016-1.257 0-2.546-0.064-3.866-0.16l-829.467-71.648c-21.153-1.792-37.12-21.376-37.12-45.472v-91.456zM80.275 208.768l829.467 71.648c26.874 2.336 47.65-7.136 58.085-25.216 5.72-9.92 12.918-31.040-3.395-60.928l-103.754-189.984c-20.902-38.272-70.971-68.288-114.001-68.288h-668.1c-45.544 0-78.578 37.024-78.578 88v91.456c0 49.248 34.511 89.376 80.275 93.312v0zM548.129 113.882c0-16.625 13.612-30.118 30.452-30.118s30.452 13.493 30.452 30.118c0 16.625-13.612 30.118-30.452 30.118s-30.452-13.493-30.452-30.118v0zM795.49 369.728l-278.448 457.056 94.671-431.072c5.123-23.296 30.174-43.712 53.59-43.712h120.475c9.052 0 13.453 2.496 14.081 3.648 0.597 1.12 0.377 6.272-4.369 14.080v0zM124.090 337.504c-5.28-8.544-4.872-13.248-4.463-13.952 0.377-0.704 4.055-3.552 13.955-3.552h282.88c21.656 0 39.289 17.952 39.289 40v516.512l-331.661-539.008zM785.778 304h-120.475c-45.827 0-89.579 35.68-99.574 81.216l-62.831 285.952v-311.168c0-48.512-38.786-88-86.436-88h-282.88c-25.302 0-45.418 10.304-55.224 28.32-9.775 17.984-7.669 40.832 5.752 62.656l341.845 555.52c0.283 0.416 0.534 0.768 0.786 1.184 0.031 0.064 0 0.096 0.031 0.16 12.541 18.4 25.302 40.16 45.827 40.16 17.004 0 29.482-18.656 38.095-32.416 2.074-3.008 4.117-6.112 6.066-9.312l318.774-523.232c13.327-21.888 15.338-44.736 5.5-62.752-9.838-17.984-29.954-28.288-55.256-28.288v0z" />
<glyph unicode="&#xe617;" glyph-name="uniE617" horiz-adv-x="928" d="M360.222 192c0-8.672-7.173-16-15.662-16h-125.295c-8.489 0-15.662 7.328-15.662 16v128c0 8.672 7.173 16 15.662 16h125.295c8.489 0 15.662-7.328 15.662-16v-128zM344.561 384h-125.295c-34.456 0-62.647-28.8-62.647-64v-128c0-35.2 28.191-64 62.647-64h125.295c34.456 0 62.647 28.8 62.647 64v128c0 35.2-28.191 64-62.647 64v0zM861.402-2.528c0-7.424-5.826-13.472-12.999-13.472h-96.634v336c0 35.2-28.191 64-62.647 64h-125.295c-34.456 0-62.647-28.8-62.647-64v-336h-441.132c-7.204 0-13.062 6.048-13.062 13.472v567.328c0 8.864 5.576 20.896 12.216 26.368l384.624 317.472c2.537 2.112 6.641 3.36 10.932 3.36 4.26 0 8.332-1.248 10.869-3.328l383.559-316.448c6.609-5.472 12.216-17.504 12.216-26.24v-568.512zM704.783-16h-156.618v336c0 8.672 7.173 16 15.662 16h125.295c8.489 0 15.662-7.328 15.662-16v-336zM878.786 629.504l-383.621 316.48c-10.838 9.024-25.247 14.016-40.408 14.016-15.223 0-29.632-5.024-40.564-14.112l-384.498-317.408c-17.729-14.56-29.695-40.16-29.695-63.68v-567.328c0-33.888 26.938-61.472 60.048-61.472h788.355c33.078 0 59.985 27.584 59.985 61.472v568.512c0 23.328-11.903 48.864-29.601 63.52v0z" />
<glyph unicode="&#xe618;" glyph-name="uniE618" d="M1024 715.392l-126.883 108.096-66.188-34.144-5.523-125.152c-49.648 28.448-104.82 45.504-159.992 45.504-60.695 0-115.836-17.056-159.992-45.504-49.648 34.144-104.82 51.2-159.992 51.2-171.008 0-314.43-147.904-314.43-324.256s137.899-324.256 314.43-324.256c60.695 0 115.836 17.056 159.992 45.504 44.125-28.448 99.297-45.504 159.992-45.504 171.008 0 314.43 142.208 314.43 324.256 0 85.344-33.109 164.992-88.25 221.856l110.344 28.448 22.063 73.952zM902.64 391.104c0-136.544-110.344-250.304-242.719-250.304-33.109 0-66.188 5.696-99.297 22.752 55.172 56.896 88.25 136.544 88.25 227.552 0 5.696 0 11.392 0 17.056l-22.063 5.696-44.125-45.504c-5.523-62.592-33.109-125.152-77.234-164.992-22.063 22.752-44.125 45.504-55.172 73.952l-27.586-11.392-55.172 22.752c16.539-51.2 38.602-91.008 77.234-130.848-33.109-5.696-66.188-17.056-99.297-17.056-132.406 0-242.719 113.792-242.719 250.304s110.344 250.304 242.719 250.304c33.109 0 66.188-5.696 99.297-22.752-44.125-45.504-71.711-96.704-82.758-159.296l38.602-34.144 27.586 11.392c11.047 56.896 38.602 102.4 77.234 136.544 16.539-17.056 33.109-34.144 44.125-56.896l38.602 22.752h33.109c-16.539 28.448-33.109 56.896-55.172 79.648 27.586 11.392 60.695 22.752 99.297 22.752 132.406 0 237.196-113.792 237.196-250.304l0.062 0.032z" />
<glyph unicode="&#xe619;" glyph-name="uniE619" d="M479.136 784.715c20.032 0 36.32-15.997 36.32-35.71h30.144c0 36.057-29.792 65.374-66.464 65.374s-66.432-29.318-66.432-65.374v-12.565h-28.352v-29.664h28.352v-12.628c0-36.025 29.76-65.374 66.432-65.374s66.464 29.349 66.464 65.374h-30.144c0-19.682-16.288-35.71-36.32-35.71-20 0-36.288 16.029-36.288 35.71v12.628h42.784v29.664h-42.784v12.565c0 19.713 16.288 35.71 36.288 35.71v0zM975.616 393.446c0 12.754-3.136 23.020-5.248 25.224-4.192 1.889-13.856 8.188-22.272 14.738l-250.112 194.107v42.733c0 3.81-4.96 11.62-11.392 15.903-1.952 1.323-3.36 1.763-4.064 1.763-6.112-2.299-16.704-10.171-22.816-17.068l-13.28-15.084c-12.512-33.254-34.144-62.131-62.016-83.67 31.712-6.078 61.568-14.769 88.832-25.854v-51.991c-53.312 24.972-120.928 40.182-193.504 40.182-80.16 0-154.144-18.674-209.632-48.432v53.313c25.088 11.463 52.928 20.626 82.4 27.649-24.32 17.099-44.416 39.552-58.528 65.658-144.736-45.409-245.6-145.36-245.6-261.245 0-55.959 23.2-109.492 67.424-156.035l0.032 0.031 18.496-17.572 129.152-125.962c11.552-9.699 24.48-16.721 30.464-16.721 3.872 1.291 9.376 8.471 9.376 17.698v33.632l28.992-5.794c13.92-2.771 85.76-16.595 136.096-16.595 50.016 0 122.112 13.824 136.096 16.627l28.96 5.731v-33.569c-0.032-3.936 4.928-11.62 11.296-15.871 3.84-2.645 4.128-1.858 4.128-1.858 5.536 2.078 17.152 9.038 25.216 15.871l274.24 236.557c3.968 3.307 8.8 6.582 13.664 9.668 4.288 2.897 9.824 6.582 10.944 8.156 1.184 2.645 2.656 12.911 2.656 22.988v45.094zM319.84 721.577c0-78.758 65.088-142.809 145.12-142.809 80.064 0 145.152 64.052 145.152 142.809s-65.088 142.841-145.152 142.841c-80.032 0-145.12-64.083-145.12-142.841v0zM1024 393.446v-45.094c0-8.282-0.704-28.94-7.104-42.89-5.952-13.037-16.544-20.154-27.744-27.68-3.936-2.519-7.072-4.535-9.344-6.424l-273.952-236.305c-11.808-10.045-28.128-20.028-39.808-24.468-5.664-2.11-11.392-3.118-17.248-3.118-10.72 0-21.6 3.527-31.36 10.203-9.856 6.582-20.96 17.824-27.2 31.868-31.424-5.542-81.824-13.1-121.824-13.1-39.552 0-90.080 7.558-120.736 12.911-6.304-17.887-19.616-32.593-36.512-38.859-31.808-11.337-68.064 15.493-80.32 26.2l-130.080 126.403c-65.952 59.58-100.768 131.567-100.768 208.278 0 135.882 113.888 252.9 276.864 305.363-3.52 14.391-5.408 29.381-5.408 44.842 0 105.21 86.624 190.423 193.504 190.423 104.288 0 189.088-81.214 193.152-182.897 2.4 1.228 4.832 2.425 7.232 3.338 15.68 5.826 33.376 3.212 48.544-6.959 14.944-10.045 32.48-30.546 32.48-55.234v-19.745l231.68-179.716c6.24-4.85 12.32-8.723 14.176-9.794 28.64-13.478 31.776-51.581 31.776-67.547v0zM826.784 446.255c0-19.871-16.352-35.994-36.576-35.994-20.096 0-36.576 16.123-36.576 35.994s16.48 35.994 36.576 35.994c20.224 0 36.576-16.123 36.576-35.994v0z" />
<glyph unicode="&#xe61b;" glyph-name="uniE61B" d="M1001.814 26.812c-1.346-7.739-8.577-16.691-10.432-17.5 0 0 0 0 0 0l-30.137-34.048c-22.049-24.96-53.685-39.232-86.852-39.232-33.136 0-64.803 14.272-86.852 39.232l-30.169 34.048c-2.655 3.040-6.121 3.488-7.964 3.488s-5.278-0.448-7.995-3.488l-30.137-34.048c-22.049-24.96-53.717-39.232-86.883-39.232-33.198 0-64.835 14.304-86.852 39.264l-30.137 34.016c-2.655 3.040-6.121 3.488-7.964 3.488-1.811 0-5.278-0.448-7.995-3.488l-30.137-34.048c-21.955-24.864-53.498-39.168-86.54-39.264h-360.546c-7.853 0-14.22 6.674-14.22 14.142v19.716c0 7.81 6.58 14.142 14.428 14.142h56.871c11.587 277.28 121.58 470.464 212.68 584.416-41.599 6.080-81.949 3.232-116.427-8.736-41.537-14.4-69.653-60.91-69.653-60.91-4.341-6.355-14.153-9.784-21.684-7.724l-17.606 4.818c-7.634 2.089-10.266 9.489-6.013 15.97 0 0 43.095 73.637 99.966 93.317 27.202 9.44 57.277 14.176 88.601 14.304-19.988 10.72-40.475 18.56-60.743 22.72-43.004 8.8-89.42-16.809-89.42-16.809-7.223-3.441-17.681-1.514-23.191 4.131l-12.88 13.197c-5.585 5.722-4.251 13.48 2.592 16.911 0 0 73.211 41.674 132.081 29.61 47.252-9.696 94.941-34.816 136.79-71.488 43.567 47.040 69.697 66.265 69.697 66.265 6.008 4.811 14.686 3.296 18.947-2.763l11.25-15.996c4.457-6.337 3.289-15.276-3.236-20.712 0 0-15.616-11.21-52.374-50.058 47.939-18.912 89.6-47.2 119.457-82.016 39.632-46.208 41.065-132.46 41.065-132.46 0.433-7.787-5.512-12.373-13.049-10.307l-17.619 4.831c-7.64 2.095-14.283 10.356-15.019 17.791 0 0-1.625 54.706-30.575 88.466-14.272 16.64-32.011 31.488-52.155 44.256 50.437-87.456 4.322-217.156 4.322-217.156-2.387-7.633-9.112-9.995-15.601-4.81l-11.889 9.498c-6.229 4.977-9.771 15.484-8.226 23.101 0 0 35.579 132.955-42.029 211.735-87.258-106.88-198.97-294.464-211.087-563.392h256.434c19.8 0.064 38.757 8.608 51.905 23.488l30.137 34.080c10.868 12.224 26.421 19.232 42.692 19.232 16.302 0 31.855-7.008 42.661-19.232l30.169-34.080c13.179-14.912 32.167-23.456 52.093-23.456 19.988 0 39.007 8.544 52.217 23.456l30.137 34.080c10.868 12.224 26.421 19.232 42.692 19.232 16.302 0 31.855-7.008 42.661-19.232l30.169-34.080c13.179-14.912 32.199-23.456 52.155-23.456s38.976 8.544 52.155 23.456l30.137 34.080c10.196 11.501 11.488 14.186 22.144 20.904 0 0 15.61 1.915 15.61 1.915 7.849 0.963 13.075-4.796 11.776-12.268l-4.401-25.307zM788.571 792c0 26.464 21.018 48 46.846 48 25.859 0 46.846-21.536 46.846-48s-20.987-48-46.846-48c-25.828 0-46.846 21.536-46.846 48v0zM985.238 768c7.809 0 14.139 6.674 14.139 14.142v19.716c0 7.81-6.252 14.142-14.139 14.142h-59.191c-2.186 8.8-5.59 17.088-9.963 24.704l41.847 42.878c5.521 5.657 5.393 14.963-0.116 20.613l-12.88 13.21c-5.585 5.728-14.535 5.839-20.114 0.123l-41.872-42.904c-7.433 4.512-15.522 7.968-24.11 10.24v60.649c0 8.001-6.514 14.487-14.31 14.487h-18.226c-7.903 0-14.31-6.406-14.31-14.487v-60.649c-8.557-2.272-16.646-5.728-24.079-10.24l-41.872 42.904c-5.524 5.66-14.605 5.527-20.114-0.123l-12.88-13.21c-5.585-5.728-5.692-14.9-0.116-20.613l41.847-42.878c-4.404-7.616-7.776-15.904-9.963-24.704h-59.216c-7.812 0-14.145-6.674-14.145-14.142v-19.716c0-7.81 6.255-14.142 14.145-14.142h59.216c2.186-8.768 5.59-17.056 9.963-24.672l-41.847-42.904c-5.521-5.66-5.393-14.969 0.116-20.619l12.88-13.21c5.585-5.728 14.535-5.839 20.114-0.123l41.872 42.904c7.433-4.512 15.522-7.968 24.079-10.24v-60.649c0-8.001 6.514-14.487 14.31-14.487h18.226c7.903 0 14.31 6.406 14.31 14.487v60.649c8.588 2.272 16.677 5.728 24.11 10.24l41.872-42.904c5.524-5.66 14.605-5.527 20.114 0.123l12.88 13.21c5.585 5.728 5.692 14.903 0.116 20.619l-41.847 42.904c4.372 7.616 7.776 15.904 9.963 24.672h59.191z" />
<glyph unicode="&#xe61c;" glyph-name="uniE61C" horiz-adv-x="768" d="M372.698 943.816c-188.197 0-184.969-185.149-184.969-185.149v-240.25h369.939v240.25c0 0 3.227 185.149-184.969 185.149zM372.698 895.054c42.947 0 76.18-11.703 98.756-34.783 38.138-38.977 38.298-100.433 38.298-100.742l-0.016-0.423v-191.927h-274.075v191.927l-0.016 0.423c-0.016 0.601 0.016 61.115 37.834 100.271 22.592 23.389 55.968 35.255 99.219 35.255zM615.228 565.929h-487.404c-70.3 0-127.818-58.514-127.818-130.032v-369.859c0-71.517 57.518-130.032 127.818-130.032h487.404c70.3 0 127.818 58.514 127.818 130.032v369.859c0 71.517-57.518 130.032-127.818 130.032zM615.228 517.167c44.049 0 79.887-36.458 79.887-81.27v-369.859c0-44.812-35.837-81.27-79.887-81.27h-487.404c-44.049 0-79.887 36.458-79.887 81.27v369.859c0 44.812 35.837 81.27 79.887 81.27h487.404zM430.882 88.89h-111.913l42.592 189.874-19.803 8.042c-3.315 1.346-9.876 5.373-16.588 12.279-11.258 11.583-17.955 26.741-18.027 47.154-0.147 41.634 29.341 68.16 65.402 68.337 34.069 0.167 66.014-29.144 65.628-67.434-0.183-18.606-6.832-33.95-18.076-46.745-6.924-7.879-13.735-12.911-17.396-14.884l-17.127-9.235 45.309-187.388zM256 38.4h238.933l-51.778 214.143c4.768 4.004 9.772 8.817 14.754 14.486 18.785 21.376 30.335 48.030 30.645 79.609 0.682 67.575-55.068 118.727-116.258 118.427-62.64-0.307-115.79-48.12-115.54-119.005 0.12-34.070 12.275-61.583 32.318-82.203 4.92-5.062 9.864-9.312 14.621-12.83l-47.696-212.627z" />
<glyph unicode="&#xe61d;" glyph-name="uniE61D" d="M828.852 616.928c-67.209 0-126.85-21.664-158.434-55.84-31.584 34.176-91.193 55.84-158.402 55.84-67.241 0-126.85-21.664-158.402-55.84-31.616 34.176-91.257 55.84-158.466 55.84-44.186 0-85.101-9.376-116.909-25.504 73.493 168.256 242.669 280.576 433.777 280.576s360.252-112.32 433.745-280.576c-31.809 16.128-72.724 25.504-116.909 25.504v0zM1016.272 533.984c-56.627 219.584-252.16 375.168-480.207 385.44v40.576h-48.098v-40.576c-228.079-10.272-423.58-165.856-480.239-385.44l-7.728-29.984h57.589l6.605 13.376c12.666 25.6 61.725 51.552 130.954 51.552 69.261 0 118.352-25.952 131.050-51.552l6.605-13.376h41.653l6.605 13.376c11.095 22.56 50.438 45.28 106.905 50.432v-487.808c0-52.96-43.16-96-96.195-96-53.068 0-96.195 43.040-96.195 96h-48.098c0-79.424 64.707-144 144.293-144 79.554 0 144.293 64.576 144.293 144v487.808c56.435-5.152 95.779-27.904 106.905-50.432l6.637-13.376h41.588l6.637 13.376c12.698 25.6 61.757 51.552 131.018 51.552 69.229 0 118.288-25.952 130.954-51.552l6.637-13.376h57.557l-7.728 29.984z" />
</font>
</defs>
</svg>
