<?xml version="1.0" encoding="UTF-8"?>
<svg baseProfile="tiny" viewBox="0 0 73.401 102.427" xmlns="http://www.w3.org/2000/svg">
 <path d="m14.001,100.758-12.4-17.274c-.42-.587-.676-1.284-.736-2l-.851-10.202c-.132-1.611.718-3.151 2.158-3.89l5.25-2.699c.257-.133.592-.259.873-.327l3.519-.867-2.309-53.978c-.089-2.073 1.413-3.865 3.474-4.136l40.549-5.35c.691-.093 1.38-.004 2.027.259l4.8,1.951c1.565.635 2.567,2.199 2.49,3.887l-2.455,53.826 11.52,9.276c1.032.831 1.583,2.111 1.479,3.432l-.801,10.125c-.13,1.636-1.233,3.016-2.801,3.504l-51.349,15.95c-.395.123-.797.182-1.194.182-1.263,0-2.476-.601-3.243-1.669z"/>
 <path d="m56.102 65.151-36.65 9.75-2.201-63.25 41.601-5.699z" fill="#fff" fill-rule="evenodd"/>
 <path d="m16.924,89.49 .327,8.937 51.35-15.951 .632-7.995-51.828,14.94c-.16.047-.321.063-.481.069z" fill="#fff"/>
 <path d="m63.854 67.868-44.853 12.333-1.48 5.025 49.981-14.41z" fill="#fff"/>
</svg>
